<svg width="204" height="23" viewBox="0 0 204 23" fill="none" xmlns="http://www.w3.org/2000/svg">
<path d="M0.113636 18V0.545454H10.6477V2.42045H2.22727V8.31818H10.1023V10.1932H2.22727V16.125H10.7841V18H0.113636ZM15.6847 4.90909L18.821 10.2614L21.9574 4.90909H24.2756L20.0483 11.4545L24.2756 18H21.9574L18.821 12.9205L15.6847 18H13.3665L17.5256 11.4545L13.3665 4.90909H15.6847ZM27.1456 22.9091V4.90909H29.0888V6.98864H29.3274C29.4751 6.76136 29.6797 6.47159 29.9411 6.11932C30.2081 5.76136 30.5888 5.44318 31.0831 5.16477C31.5831 4.88068 32.2592 4.73864 33.1115 4.73864C34.2138 4.73864 35.1854 5.0142 36.0263 5.56534C36.8672 6.11648 37.5234 6.89773 37.995 7.90909C38.4666 8.92045 38.7024 10.1136 38.7024 11.4886C38.7024 12.875 38.4666 14.0767 37.995 15.0938C37.5234 16.1051 36.87 16.8892 36.0348 17.446C35.1996 17.9972 34.2365 18.2727 33.1456 18.2727C32.3047 18.2727 31.6314 18.1335 31.1257 17.8551C30.62 17.571 30.2308 17.25 29.9581 16.892C29.6854 16.5284 29.4751 16.2273 29.3274 15.9886H29.157V22.9091H27.1456ZM29.1229 11.4545C29.1229 12.4432 29.2678 13.3153 29.5575 14.071C29.8473 14.821 30.2706 15.4091 30.8274 15.8352C31.3842 16.2557 32.0661 16.4659 32.8729 16.4659C33.7138 16.4659 34.4155 16.2443 34.978 15.8011C35.5462 15.3523 35.9723 14.75 36.2564 13.9943C36.5462 13.233 36.6911 12.3864 36.6911 11.4545C36.6911 10.5341 36.549 9.70455 36.2649 8.96591C35.9865 8.22159 35.5632 7.63352 34.995 7.2017C34.4325 6.7642 33.7251 6.54545 32.8729 6.54545C32.0547 6.54545 31.3672 6.75284 30.8104 7.16761C30.2536 7.5767 29.8331 8.15057 29.549 8.8892C29.2649 9.62216 29.1229 10.4773 29.1229 11.4545ZM43.782 0.545454V18H41.7706V0.545454H43.782ZM52.7841 18.2727C51.6023 18.2727 50.5653 17.9915 49.6733 17.429C48.7869 16.8665 48.0938 16.0795 47.5938 15.0682C47.0994 14.0568 46.8523 12.875 46.8523 11.5227C46.8523 10.1591 47.0994 8.96875 47.5938 7.9517C48.0938 6.93466 48.7869 6.14489 49.6733 5.58239C50.5653 5.01989 51.6023 4.73864 52.7841 4.73864C53.9659 4.73864 55 5.01989 55.8864 5.58239C56.7784 6.14489 57.4716 6.93466 57.9659 7.9517C58.4659 8.96875 58.7159 10.1591 58.7159 11.5227C58.7159 12.875 58.4659 14.0568 57.9659 15.0682C57.4716 16.0795 56.7784 16.8665 55.8864 17.429C55 17.9915 53.9659 18.2727 52.7841 18.2727ZM52.7841 16.4659C53.6818 16.4659 54.4205 16.2358 55 15.7756C55.5795 15.3153 56.0085 14.7102 56.2869 13.9602C56.5653 13.2102 56.7045 12.3977 56.7045 11.5227C56.7045 10.6477 56.5653 9.83239 56.2869 9.0767C56.0085 8.32102 55.5795 7.71023 55 7.24432C54.4205 6.77841 53.6818 6.54545 52.7841 6.54545C51.8864 6.54545 51.1477 6.77841 50.5682 7.24432C49.9886 7.71023 49.5597 8.32102 49.2812 9.0767C49.0028 9.83239 48.8636 10.6477 48.8636 11.5227C48.8636 12.3977 49.0028 13.2102 49.2812 13.9602C49.5597 14.7102 49.9886 15.3153 50.5682 15.7756C51.1477 16.2358 51.8864 16.4659 52.7841 16.4659ZM61.7862 18V4.90909H63.7294V6.88636H63.8658C64.1044 6.23864 64.5362 5.71307 65.1612 5.30966C65.7862 4.90625 66.4908 4.70454 67.2749 4.70454C67.4226 4.70454 67.6072 4.70739 67.8288 4.71307C68.0504 4.71875 68.218 4.72727 68.3317 4.73864V6.78409C68.2635 6.76705 68.1072 6.74148 67.8629 6.70739C67.6243 6.66761 67.3714 6.64773 67.1044 6.64773C66.468 6.64773 65.8999 6.78125 65.3999 7.0483C64.9055 7.30966 64.5135 7.6733 64.2237 8.1392C63.9396 8.59943 63.7976 9.125 63.7976 9.71591V18H61.7862ZM75.8061 18.2727C74.5447 18.2727 73.4567 17.9943 72.5419 17.4375C71.6328 16.875 70.9311 16.0909 70.4368 15.0852C69.9482 14.0739 69.7038 12.8977 69.7038 11.5568C69.7038 10.2159 69.9482 9.03409 70.4368 8.01136C70.9311 6.98295 71.6186 6.18182 72.4993 5.60795C73.3857 5.02841 74.4197 4.73864 75.6016 4.73864C76.2834 4.73864 76.9567 4.85227 77.6214 5.07954C78.2862 5.30682 78.8913 5.67614 79.4368 6.1875C79.9822 6.69318 80.4169 7.36364 80.7408 8.19886C81.0646 9.03409 81.2266 10.0625 81.2266 11.2841V12.1364H71.1357V10.3977H79.1811C79.1811 9.65909 79.0334 9 78.7379 8.42045C78.4482 7.84091 78.0334 7.38352 77.4936 7.0483C76.9595 6.71307 76.3288 6.54545 75.6016 6.54545C74.8004 6.54545 74.1072 6.74432 73.522 7.14205C72.9425 7.53409 72.4964 8.04545 72.1839 8.67614C71.8714 9.30682 71.7152 9.98295 71.7152 10.7045V11.8636C71.7152 12.8523 71.8857 13.6903 72.2266 14.3778C72.5732 15.0597 73.0533 15.5795 73.6669 15.9375C74.2805 16.2898 74.9936 16.4659 75.8061 16.4659C76.3345 16.4659 76.8118 16.392 77.2379 16.2443C77.6697 16.0909 78.0419 15.8636 78.3544 15.5625C78.6669 15.2557 78.9084 14.875 79.0788 14.4205L81.022 14.9659C80.8175 15.625 80.4737 16.2045 79.9908 16.7045C79.5078 17.1989 78.9112 17.5852 78.201 17.8636C77.4908 18.1364 76.6925 18.2727 75.8061 18.2727ZM84.2862 18V4.90909H86.2294V6.88636H86.3658C86.6044 6.23864 87.0362 5.71307 87.6612 5.30966C88.2862 4.90625 88.9908 4.70454 89.7749 4.70454C89.9226 4.70454 90.1072 4.70739 90.3288 4.71307C90.5504 4.71875 90.718 4.72727 90.8317 4.73864V6.78409C90.7635 6.76705 90.6072 6.74148 90.3629 6.70739C90.1243 6.66761 89.8714 6.64773 89.6044 6.64773C88.968 6.64773 88.3999 6.78125 87.8999 7.0483C87.4055 7.30966 87.0135 7.6733 86.7237 8.1392C86.4396 8.59943 86.2976 9.125 86.2976 9.71591V18H84.2862Z" fill="black"/>
<path d="M107.33 0.545454V18H105.284L95.7727 4.29545H95.6023V18H93.4886V0.545454H95.5341L105.08 14.2841H105.25V0.545454H107.33ZM116.775 18.2727C115.513 18.2727 114.425 17.9943 113.511 17.4375C112.602 16.875 111.9 16.0909 111.406 15.0852C110.917 14.0739 110.673 12.8977 110.673 11.5568C110.673 10.2159 110.917 9.03409 111.406 8.01136C111.9 6.98295 112.587 6.18182 113.468 5.60795C114.354 5.02841 115.388 4.73864 116.57 4.73864C117.252 4.73864 117.925 4.85227 118.59 5.07954C119.255 5.30682 119.86 5.67614 120.406 6.1875C120.951 6.69318 121.386 7.36364 121.71 8.19886C122.033 9.03409 122.195 10.0625 122.195 11.2841V12.1364H112.104V10.3977H120.15C120.15 9.65909 120.002 9 119.707 8.42045C119.417 7.84091 119.002 7.38352 118.462 7.0483C117.928 6.71307 117.298 6.54545 116.57 6.54545C115.769 6.54545 115.076 6.74432 114.491 7.14205C113.911 7.53409 113.465 8.04545 113.153 8.67614C112.84 9.30682 112.684 9.98295 112.684 10.7045V11.8636C112.684 12.8523 112.854 13.6903 113.195 14.3778C113.542 15.0597 114.022 15.5795 114.636 15.9375C115.249 16.2898 115.962 16.4659 116.775 16.4659C117.303 16.4659 117.781 16.392 118.207 16.2443C118.638 16.0909 119.011 15.8636 119.323 15.5625C119.636 15.2557 119.877 14.875 120.048 14.4205L121.991 14.9659C121.786 15.625 121.442 16.2045 120.96 16.7045C120.477 17.1989 119.88 17.5852 119.17 17.8636C118.46 18.1364 117.661 18.2727 116.775 18.2727ZM128.221 18L124.232 4.90909H126.346L129.175 14.9318H129.312L132.107 4.90909H134.255L137.016 14.8977H137.153L139.982 4.90909H142.096L138.107 18H136.13L133.266 7.94318H133.062L130.198 18H128.221ZM145.028 18V0.545454H150.925C152.295 0.545454 153.414 0.792613 154.283 1.28693C155.158 1.77557 155.806 2.4375 156.227 3.27273C156.647 4.10795 156.857 5.03977 156.857 6.06818C156.857 7.09659 156.647 8.03125 156.227 8.87216C155.812 9.71307 155.17 10.3835 154.3 10.8835C153.431 11.3778 152.317 11.625 150.96 11.625H146.732V9.75H150.891C151.829 9.75 152.582 9.58807 153.15 9.2642C153.718 8.94034 154.13 8.50284 154.386 7.9517C154.647 7.39489 154.778 6.76705 154.778 6.06818C154.778 5.36932 154.647 4.74432 154.386 4.19318C154.13 3.64205 153.715 3.21023 153.141 2.89773C152.567 2.57955 151.806 2.42045 150.857 2.42045H147.141V18H145.028ZM162.001 0.545454V18H159.989V0.545454H162.001ZM169.537 18.3068C168.707 18.3068 167.955 18.1506 167.278 17.8381C166.602 17.5199 166.065 17.0625 165.668 16.4659C165.27 15.8636 165.071 15.1364 165.071 14.2841C165.071 13.5341 165.219 12.9261 165.514 12.4602C165.81 11.9886 166.205 11.6193 166.699 11.3523C167.193 11.0852 167.739 10.8864 168.335 10.7557C168.938 10.6193 169.543 10.5114 170.151 10.4318C170.946 10.3295 171.591 10.2528 172.085 10.2017C172.585 10.1449 172.949 10.0511 173.176 9.92045C173.409 9.78977 173.526 9.5625 173.526 9.23864V9.17045C173.526 8.32955 173.295 7.67614 172.835 7.21023C172.381 6.74432 171.69 6.51136 170.764 6.51136C169.804 6.51136 169.051 6.72159 168.506 7.14205C167.96 7.5625 167.577 8.01136 167.355 8.48864L165.446 7.80682C165.787 7.01136 166.241 6.39205 166.81 5.94886C167.384 5.5 168.009 5.1875 168.685 5.01136C169.366 4.82955 170.037 4.73864 170.696 4.73864C171.116 4.73864 171.599 4.78977 172.145 4.89204C172.696 4.98864 173.227 5.19034 173.739 5.49716C174.256 5.80398 174.685 6.26705 175.026 6.88636C175.366 7.50568 175.537 8.33523 175.537 9.375V18H173.526V16.2273H173.423C173.287 16.5114 173.06 16.8153 172.741 17.1392C172.423 17.4631 172 17.7386 171.472 17.9659C170.943 18.1932 170.298 18.3068 169.537 18.3068ZM169.844 16.5C170.639 16.5 171.31 16.3438 171.855 16.0312C172.406 15.7188 172.821 15.3153 173.099 14.821C173.384 14.3267 173.526 13.8068 173.526 13.2614V11.4205C173.44 11.5227 173.253 11.6165 172.963 11.7017C172.679 11.7812 172.349 11.8523 171.974 11.9148C171.605 11.9716 171.244 12.0227 170.892 12.0682C170.545 12.108 170.264 12.142 170.048 12.1705C169.526 12.2386 169.037 12.3494 168.582 12.5028C168.134 12.6506 167.77 12.875 167.491 13.1761C167.219 13.4716 167.082 13.875 167.082 14.3864C167.082 15.0852 167.341 15.6136 167.858 15.9716C168.381 16.3239 169.043 16.5 169.844 16.5ZM184.526 18.2727C183.299 18.2727 182.242 17.983 181.356 17.4034C180.469 16.8239 179.788 16.0256 179.31 15.0085C178.833 13.9915 178.594 12.8295 178.594 11.5227C178.594 10.1932 178.839 9.01989 179.327 8.00284C179.822 6.98011 180.509 6.18182 181.39 5.60795C182.276 5.02841 183.31 4.73864 184.492 4.73864C185.413 4.73864 186.242 4.90909 186.981 5.25C187.719 5.59091 188.325 6.06818 188.796 6.68182C189.268 7.29545 189.56 8.01136 189.674 8.82955H187.663C187.509 8.23295 187.168 7.70455 186.64 7.24432C186.117 6.77841 185.413 6.54545 184.526 6.54545C183.742 6.54545 183.055 6.75 182.464 7.15909C181.879 7.5625 181.421 8.13352 181.092 8.87216C180.768 9.60511 180.606 10.4659 180.606 11.4545C180.606 12.4659 180.765 13.3466 181.083 14.0966C181.407 14.8466 181.862 15.429 182.447 15.8438C183.038 16.2585 183.731 16.4659 184.526 16.4659C185.049 16.4659 185.523 16.375 185.95 16.1932C186.376 16.0114 186.737 15.75 187.032 15.4091C187.327 15.0682 187.538 14.6591 187.663 14.1818H189.674C189.56 14.9545 189.279 15.6506 188.83 16.2699C188.387 16.8835 187.799 17.3722 187.066 17.7358C186.339 18.0938 185.492 18.2727 184.526 18.2727ZM198.103 18.2727C196.842 18.2727 195.754 17.9943 194.839 17.4375C193.93 16.875 193.228 16.0909 192.734 15.0852C192.245 14.0739 192.001 12.8977 192.001 11.5568C192.001 10.2159 192.245 9.03409 192.734 8.01136C193.228 6.98295 193.915 6.18182 194.796 5.60795C195.683 5.02841 196.717 4.73864 197.898 4.73864C198.58 4.73864 199.254 4.85227 199.918 5.07954C200.583 5.30682 201.188 5.67614 201.734 6.1875C202.279 6.69318 202.714 7.36364 203.038 8.19886C203.362 9.03409 203.523 10.0625 203.523 11.2841V12.1364H193.433V10.3977H201.478C201.478 9.65909 201.33 9 201.035 8.42045C200.745 7.84091 200.33 7.38352 199.79 7.0483C199.256 6.71307 198.626 6.54545 197.898 6.54545C197.097 6.54545 196.404 6.74432 195.819 7.14205C195.239 7.53409 194.793 8.04545 194.481 8.67614C194.168 9.30682 194.012 9.98295 194.012 10.7045V11.8636C194.012 12.8523 194.183 13.6903 194.523 14.3778C194.87 15.0597 195.35 15.5795 195.964 15.9375C196.577 16.2898 197.29 16.4659 198.103 16.4659C198.631 16.4659 199.109 16.392 199.535 16.2443C199.967 16.0909 200.339 15.8636 200.651 15.5625C200.964 15.2557 201.205 14.875 201.376 14.4205L203.319 14.9659C203.114 15.625 202.771 16.2045 202.288 16.7045C201.805 17.1989 201.208 17.5852 200.498 17.8636C199.788 18.1364 198.989 18.2727 198.103 18.2727Z" fill="#4C1D95"/>
</svg>
